<?xml version="1.0" encoding="UTF-8" standalone="no"?>
<svg version="1.1" xmlns="http://www.w3.org/2000/svg" xmlns:xlink="http://www.w3.org/1999/xlink" width="493.12" height="250.88">
	<g id="FAQ_by_AdamStanislav" transform="matrix(1,0,0,1,-150.387,-436.057)">
		<path id="FA" fill="black" d="M 413.981,436.124 C 363.283,436.001 312.977,445.633 264.684,460.791 C 230.548,473.252 195.177,484.055 164.94,504.833 C 170.681,502.587 176.424,500.34 182.165,498.093 C 200.129,490.319 181.603,499.339 173.047,504.725 C 156.633,514.096 171.715,505.449 179.895,501.612 C 183.356,500.173 186.823,498.736 190.293,497.305 C 188.871,498 187.448,498.696 186.027,499.391 C 184.333,513.607 183.76,527.919 183.169,542.213 C 182.781,553.675 182.133,565.151 181.524,576.631 C 178.428,576.699 175.327,576.689 172.219,576.588 L 150.367,592.884 C 160.521,592.7 170.68,592.051 180.804,591.011 C 179.771,613.689 179.379,636.369 181.94,658.979 C 183.207,661.179 182.943,664.424 181.897,667.019 C 185.289,664.523 188.881,662.301 192.548,660.193 C 196.127,658.744 199.791,657.527 203.581,656.757 C 211.948,657.824 204.581,649.224 205.209,644.776 C 202.332,625.992 202.155,607.061 202.857,588.127 C 225.243,584.295 247.956,583.639 270.548,581.843 C 286.1,580.204 301.705,579.516 317.321,579.031 C 303.403,597.903 288.952,616.401 274.725,635.015 C 262.299,651.973 248.916,668.447 238.724,686.876 C 246.787,683.127 254.848,679.376 262.911,675.627 C 269.572,664.62 276.9,653.481 284.531,642.903 C 300.295,621.235 316.717,600.051 332.761,578.589 C 343.867,578.283 354.971,577.955 366.06,577.339 C 373.323,577.244 380.628,576.353 387.916,575.891 C 391.355,598.684 395.92,621.516 409.557,640.472 C 415.899,647.877 421.203,655.996 425.879,664.484 L 446.308,652.219 C 451.007,648.213 440.257,638.727 437.427,633.672 C 421.687,617.192 415.335,595.155 411.513,573.117 L 423.547,564.861 C 432.572,560.855 424.932,559.128 418.123,559.667 C 415.248,559.821 412.373,559.983 409.497,560.145 C 409.339,559.021 409.181,557.9 409.028,556.783 C 405.793,538.072 405.525,518.404 398.069,500.711 C 394.168,489.412 380.673,491.769 373.583,498.451 C 363.448,503.413 360.733,514.073 355.361,523.037 C 346.893,536.971 337.812,550.495 328.376,563.773 C 308.739,564.601 289.172,566.691 269.553,567.945 C 247.355,568.328 225.472,572.675 203.459,575.087 C 204.017,564.619 204.717,554.16 205.252,543.733 C 206.621,525.591 206.532,507.209 210.06,489.309 C 228.597,482.003 247.376,475.277 266.644,470.217 C 318.933,454.445 373.869,448.983 428.319,452.104 C 472.317,451.463 516.237,454.855 559.771,461.095 C 580.459,463.193 598.153,474.432 617.52,480.784 C 624.948,486.256 630.555,476.592 636.965,473.653 C 653.496,466.62 635.373,464.315 625.927,460.711 C 603.229,448.431 577.419,444.52 552.012,442.333 C 511.473,436.664 470.535,437.423 429.727,436.48 C 424.475,436.253 419.227,436.136 413.981,436.124 Z M 181.897,667.019 C 180.172,668.288 178.497,669.628 176.892,671.059 C 178.851,671.737 180.803,669.736 181.897,667.019 Z M 376.307,516.761 C 381.428,527.552 382.051,540.229 384.327,551.829 C 384.849,555.031 385.337,558.263 385.813,561.511 C 371.88,562.303 357.941,563.025 343.985,563.417 C 349.199,556.284 354.344,549.1 359.383,541.839 C 365.316,533.704 370.947,525.305 376.307,516.761 Z "/>
		<path id="Q" fill="black" d="M 551.468,509.633 C 561.656,509.737 571.436,514.311 580.057,519.347 C 592.415,526.565 603.719,537.207 608.099,551.493 C 613.489,569.075 604.107,601.757 585.601,621.785 C 582.263,625.399 578.372,629.805 574.084,632.341 C 570.036,634.736 562.604,635.943 556.425,636.777 C 563.993,622.271 555.881,609.671 546.149,595.897 C 543.065,591.532 541.359,588.673 539.076,584.084 C 531.587,569.028 529.311,555.073 532.805,540.579 C 535.688,528.623 546.191,509.668 551.468,509.633 Z M 542.749,484.015 C 534.279,484.115 528.717,487.697 516.761,494.029 C 487.839,509.347 472.312,546.259 470.717,569.14 C 469.7,583.731 484.495,653.757 528.684,652.68 C 518.829,664.461 498.631,667.825 485.124,681.88 C 484.564,682.547 486.801,682.799 487.643,682.576 C 489.245,682.152 490.464,681.687 493.221,680.229 C 498.687,677.34 504.172,674.5 509.683,671.708 C 524.727,664.087 539.165,652.66 549.391,649.556 C 601.557,633.72 650.727,576.58 627.541,530.983 C 619.003,514.191 586.484,492.629 569.041,494.031 C 549.271,495.619 514.144,518.332 508.34,554.489 C 501.728,595.68 534.992,611.089 535.845,635.924 C 504.013,627.464 493.672,568.512 494.011,560.619 C 494.653,545.639 500.551,526.284 512.644,508.905 C 514.207,506.659 517.264,501.019 519.904,499.963 C 523.647,498.465 527.376,501.513 530.74,501.636 C 534.936,501.789 548.592,490.575 550.213,489.627 C 551.296,488.993 552.709,488.18 552.841,486.932 C 552.801,485.44 550.36,485.048 548.883,484.836 C 546.847,484.544 544.939,484.049 542.749,484.015 Z "/>
	</g>
</svg>